<?xml version="1.0" encoding="iso-8859-1"?>
<!-- Generator: Adobe Illustrator 19.0.0, SVG Export Plug-In . SVG Version: 6.00 Build 0)  -->
<svg version="1.1" id="Capa_1" xmlns="http://www.w3.org/2000/svg" xmlns:xlink="http://www.w3.org/1999/xlink" x="0px" y="0px"
	 viewBox="0 0 512 512" style="enable-background:new 0 0 512 512;" xml:space="preserve">
<path style="fill:#D2D2D7;" d="M477.501,56.168v407.939c0,22.273-17.242,40.338-38.52,40.338l-338.319,0.02H72.845
	c-21.279,0-38.531-18.055-38.531-40.328V56.168c0-26.862,20.797-48.633,46.464-48.633h350.269
	C456.704,7.535,477.501,29.306,477.501,56.168z"/>
<path style="fill:#EBEBF0;" d="M477.501,56.168v407.939c0,22.273-17.242,40.338-38.52,40.338l-338.319,0.02h-0.151
	c-21.208-0.09-38.38-18.105-38.38-40.328V56.168c0-26.862,20.797-48.633,46.464-48.633h322.453
	C456.704,7.535,477.501,29.306,477.501,56.168z"/>
<path style="fill:#7D8287;" d="M477.501,56.168v13.054H34.314V56.168c0-26.862,20.797-48.633,46.464-48.633h350.269
	C456.704,7.535,477.501,29.306,477.501,56.168z"/>
<path style="fill:#4B5055;" d="M80.778,7.535c-25.667,0-46.464,21.771-46.464,48.633v13.054H62.13V56.168
	c0-26.862,20.797-48.633,46.464-48.633C108.594,7.535,80.778,7.535,80.778,7.535z"/>
<path style="fill:#3993B7;" d="M307.241,330.742c-9.811,4.69-19.943,7.923-30.156,9.771c-1.175,0.221-2.34,0.422-3.515,0.592
	c-11.839,1.777-23.749,1.727-35.327-0.02c-37.657-5.694-71.93-29.342-89.603-66.286c-28.348-59.247-3.304-130.253,55.933-158.601
	c23.418-11.207,48.683-14.069,72.412-9.771c36.311,6.567,69.048,29.884,86.189,65.714
	C391.522,231.378,366.478,302.384,307.241,330.742z"/>
<path style="fill:#3E9DC3;" d="M307.241,330.742c-9.811,4.69-19.943,7.923-30.156,9.771c-36.291-6.577-69.038-29.895-86.169-65.714
	c-28.348-59.247-3.304-130.253,55.933-158.601c9.811-4.69,19.933-7.923,30.136-9.771c36.311,6.567,69.048,29.884,86.189,65.714
	C391.522,231.378,366.478,302.384,307.241,330.742z"/>
<path style="fill:#E3A76F;" d="M273.571,279.097v62.008c-11.839,1.777-23.749,1.727-35.327-0.02v-61.988H273.571z"/>
<path style="fill:#D63030;" d="M357.661,414.189c0,9.249-3.786,17.664-9.881,23.759s-14.51,9.881-23.759,9.881H187.794
	c-18.507,0-33.64-15.143-33.64-33.64c0-9.249,3.786-17.664,9.881-23.759c6.095-6.095,14.51-9.881,23.759-9.881h136.228
	C342.528,380.549,357.661,395.682,357.661,414.189z"/>
<path style="fill:#F44545;" d="M357.661,414.189c0,9.249-3.786,17.664-9.881,23.759s-14.51,9.881-23.759,9.881H222.468
	c-18.507,0-33.64-15.143-33.64-33.64c0-9.249,3.786-17.664,9.881-23.759c6.095-6.095,14.5-9.881,23.759-9.881h101.553
	C342.528,380.549,357.661,395.682,357.661,414.189z"/>
<path style="fill:#E3A76F;" d="M313.538,224.429v28.931c0,26.39-20.726,48.171-46.715,49.848c-1.064,0.07-2.149,0.11-3.233,0.11
	h-13.998c-27.474,0-49.948-22.484-49.948-49.958v-28.931c0-27.474,22.474-49.958,49.948-49.958h13.998
	c1.085,0,2.169,0.04,3.233,0.11C292.811,176.258,313.538,198.039,313.538,224.429z"/>
<path style="fill:#F2BB88;" d="M313.538,224.429v28.931c0,26.39-20.726,48.171-46.715,49.848
	c-25.988-1.667-46.725-23.458-46.725-49.848v-28.931c0-26.39,20.736-48.181,46.725-49.848
	C292.811,176.258,313.538,198.039,313.538,224.429z"/>
<path style="fill:#E3D000;" d="M329.263,163.214v41.212c0,8.536-6.979,15.525-15.525,15.525h-0.643
	c-8.536,0-15.515-6.989-15.515-15.525v-5.623c0-1.095-0.844-1.657-1.868-1.255c-22.925,8.987-43.762,13.064-61.165,14.561
	c-8.827,0.773-16.77,0.874-23.649,0.613c-16.218-0.603-29.051-13.908-29.051-30.136v-8.445c0-17.874,14.621-32.505,32.495-32.505
	h55.792c12.151,0,22.765,6.879,28.157,16.931c1.988-6.286,7.883-10.875,14.802-10.875h0.643
	C322.284,147.689,329.263,154.678,329.263,163.214z"/>
<path style="fill:#FFEA06;" d="M329.263,163.214v41.212c0,8.536-6.979,15.525-15.525,15.525h-0.643
	c-8.536,0-15.515-6.989-15.515-15.525v-5.623c0-1.095-0.844-1.657-1.868-1.255c-22.925,8.987-43.762,13.064-61.165,14.561
	c-13.777-2.832-24.05-15.003-24.05-29.523v-8.445c0-17.874,14.621-32.505,32.505-32.505h27.133c12.151,0,22.765,6.879,28.157,16.931
	c1.988-6.286,7.883-10.875,14.802-10.875h0.643C322.284,147.689,329.263,154.678,329.263,163.214z"/>
<path style="fill:#3993B7;" d="M379.342,463.415c-0.01,0.603-0.06,1.205-0.141,1.808c-0.08,0.603-0.201,1.205-0.351,1.808
	c-0.723,2.802-2.199,5.433-4.439,7.582c-6.367,6.085-16.489,5.864-22.584-0.502l-9.329-9.751l-8.666,8.295
	c-5.824,5.563-15.495,2.751-17.413-5.081l-6.638-27.173l-6.648-27.173c-1.908-7.823,5.372-14.792,13.115-12.532l12.643,3.685
	l0.121,0.03l14.089,4.117l26.852,7.843c7.732,2.249,10.122,12.04,4.308,17.603l-8.666,8.305l9.309,9.741
	C377.956,455.21,379.432,459.338,379.342,463.415z"/>
<path style="fill:#3E9DC3;" d="M379.342,463.415c-0.01,0.603-0.06,1.205-0.141,1.808c-25.366-10.705-44.475-33.319-50.31-60.843
	l0.121,0.03l14.089,4.117l26.852,7.843c7.732,2.249,10.122,12.04,4.308,17.603l-8.666,8.305l9.309,9.741
	C377.956,455.21,379.432,459.338,379.342,463.415z"/>
<path d="M482.066,37.766c-1.316-3.946-5.583-6.078-9.526-4.764c-3.946,1.315-6.079,5.58-4.764,9.527
	c3.01,9.032,2.021,15.716,2.194,19.161H41.846v-5.521c0-22.665,17.465-41.106,38.931-41.106h350.27
	c7.912,0,15.526,2.491,22.018,7.206c3.364,2.443,8.075,1.697,10.52-1.669c2.445-3.366,1.697-8.076-1.668-10.52
	C452.834,3.486,442.159,0,431.047,0H80.777C51.005,0,26.782,25.198,26.782,56.17v407.964c0,10.306,3.103,20.124,8.974,28.392
	c1.468,2.069,3.79,3.172,6.148,3.172c1.507,0,3.031-0.452,4.353-1.391c3.391-2.408,4.189-7.11,1.78-10.501
	c-4.051-5.708-6.193-12.51-6.193-19.674V76.754h428.124v387.354c0,18.087-13.902,32.804-30.99,32.804l-366.137,0.026
	c-1.659,0-3.323-0.14-4.944-0.414c-4.099-0.699-7.989,2.068-8.682,6.168c-0.694,4.101,2.068,7.989,6.169,8.683
	c2.448,0.415,4.959,0.626,7.459,0.626l366.138-0.026c25.393-0.002,46.051-21.474,46.051-47.866
	C484.022,38.674,487.512,54.112,482.066,37.766z"/>
<path d="M65.364,31.566c-4.159,0-7.531,3.372-7.531,7.531s3.372,7.531,7.531,7.531h341.422c4.159,0,7.531-3.372,7.531-7.531
	s-3.372-7.531-7.531-7.531C406.786,31.566,65.364,31.566,65.364,31.566z"/>
<circle cx="438.015" cy="39.097" r="10.815"/>
<path d="M385.025,426.451c0-8.094-5.212-15.053-12.964-17.312l-7.501-2.189c-3.434-19.26-20.305-33.931-40.539-33.931H187.794
	c-22.705,0-41.172,18.467-41.172,41.172c0,22.705,18.467,41.172,41.172,41.172h117.881l3.424,14.008
	c1.988,8.084,9.198,13.727,17.533,13.727c9.341,0,13.792-6.738,15.635-8.094c2.254,1.771,8.117,11.568,21.108,11.568
	c10.912,0,20.135-7.44,22.765-17.674c4.011-15.589-8.518-24.508-9.901-26.39C377.671,440.693,385.025,436.362,385.025,426.451z
	 M295.563,407.662H184.972c-4.167,0-7.531,3.374-7.531,7.531c0,4.157,3.364,7.531,7.531,7.531h112.74l4.288,17.573H187.794
	c-14.4,0-26.109-11.719-26.109-26.109c0-14.4,11.709-26.109,26.109-26.109h136.228c9.931,0,18.587,5.573,22.996,13.747
	c-28.756-8.167-29.284-9.098-33.751-9.098C304.389,392.73,296.999,399.197,295.563,407.662z M371.81,463.224
	c0,4.38-3.71,8.285-8.435,8.285c-5.775,0-7.359-4.74-15.434-12.351c-2.275-2.392-5.337-2.307-5.443-2.33
	c-4.849,0-6.311,3.806-13.868,10.383c-1.669,1.582-4.357,0.76-4.9-1.426c-0.422-1.724-13.366-54.492-13.366-55.09
	c0-1.692,1.669-3.353,3.776-2.772c43.955,12.823,28.666,8.361,53.704,15.675c1.567,0.452,2.119,1.818,2.119,2.852
	c0,2.067-1.201,2.005-9.58,10.393c-3.003,2.872-3.113,7.642-0.231,10.644c7.447,8.551,11.659,10.167,11.659,15.575L371.81,463.224
	L371.81,463.224z"/>
<path d="M322.429,115.915c-84.606-52.23-192.996,9.236-192.996,107.634c0,93.403,98.129,153.665,181.061,113.985
	c17.366-8.314,32.223-20.101,44.159-35.036c2.596-3.25,2.068-7.988-1.182-10.585c-3.251-2.598-7.99-2.068-10.586,1.182
	c-16.182,20.248-38.325,33.42-61.781,38.894v-23.871c23.156-7.421,39.966-29.161,39.966-54.758v-27.083
	c9.128-3.063,15.725-11.699,15.725-21.851v-41.212c0-20.275-24.19-29.993-38.731-17.493c-7.31-7.341-17.292-11.618-27.926-11.618
	h-55.792c-22.072,0-40.027,17.965-40.027,40.037c0.57,2.652-4.152,27.633,18.557,40.961c-1.267,7.678-0.562,11.165-0.763,38.259
	c0,25.095,16.147,46.474,38.601,54.306v24.3c-32.856-7.646-60.599-29.736-75.279-60.419c-26.974-56.373-2.001-122.527,52.39-148.556
	c56.292-26.935,122.485-2.087,148.557,52.4c14.694,30.706,14.09,64.801,1.151,93.679c-1.7,3.796-0.002,8.251,3.794,9.952
	c3.791,1.7,8.251,0.003,9.952-3.793C397.557,216.576,375.597,148.738,322.429,115.915z M266.04,334.407
	c-6.214,0.563-12.713,0.68-20.264-0.013v-23.677c2.721,0.195,18.114,0.16,20.264,0.08V334.407z M189.38,174.139
	c0-13.767,11.197-24.974,24.964-24.974h55.792c8.987,0,17.232,4.971,21.52,12.964c3.145,5.849,11.81,5.056,13.818-1.295
	c1.935-6.121,8.162-5.58,8.264-5.613c4.408,0,7.993,3.585,7.993,7.993v41.212c0,2.259-0.944,4.298-2.45,5.764
	c-4.828,4.625-14.169,1.806-14.169-5.764v-5.623c0-6.456-6.226-10.586-12.141-8.274c-23.971,9.368-49.18,14.792-75.223,14.792
	c-7.796,0-13.747,0.044-20.194-5.302C186.624,190.992,189.997,178.377,189.38,174.139z M207.174,253.359
	c0.073-28.896-0.173-29.458,0.231-33.359c16.563,1.893,49.961-0.828,82.855-12.392c1.225,8.827,7.471,16.067,15.746,18.748v27.003
	c0,23.42-19.05,42.427-42.417,42.427c-13.648-0.049-14.546,0.117-17.814-0.171C224.183,293.677,207.174,275.487,207.174,253.359z"/>
<circle cx="225.178" cy="230.691" r="7.604"/>
<circle cx="290.581" cy="230.691" r="7.604"/>
<path d="M276.915,272.359c1.356-0.793,2.721-1.687,4.107-2.661c3.394-2.4,4.208-7.1,1.797-10.494c-2.4-3.394-7.1-4.208-10.494-1.797
	c-11.46,8.092-18.155,5.804-20.351,6.145c-6.463-0.895-10.397-4.518-11.13-5.251c-2.882-2.962-7.612-3.053-10.594-0.191
	c-3.013,2.872-3.113,7.642-0.241,10.644C240.429,279.521,258.994,282.956,276.915,272.359z"/>
<g>
</g>
<g>
</g>
<g>
</g>
<g>
</g>
<g>
</g>
<g>
</g>
<g>
</g>
<g>
</g>
<g>
</g>
<g>
</g>
<g>
</g>
<g>
</g>
<g>
</g>
<g>
</g>
<g>
</g>
</svg>
