<svg height="464pt" viewBox="-56 0 464 464.00003" width="464pt" xmlns="http://www.w3.org/2000/svg"><path d="m16 64h320c8.835938 0 16 7.164062 16 16v368c0 8.835938-7.164062 16-16 16h-320c-8.835938 0-16-7.164062-16-16v-368c0-8.835938 7.164062-16 16-16zm0 0" fill="#ffeb99"/><path d="m320 272c0 79.527344-64.472656 144-144 144s-144-64.472656-144-144 64.472656-144 144-144 144 64.472656 144 144zm0 0" fill="#00e7f0"/><path d="m240 32h-128c-.011719-8.488281 3.355469-16.636719 9.359375-22.640625s14.152344-9.3710938 22.640625-9.359375h64c17.671875 0 32 14.328125 32 32zm0 0" fill="#6b1600"/><path d="m288 64c-.027344 8.824219-7.175781 15.972656-16 16h-192c-8.824219-.027344-15.972656-7.175781-16-16v-16c.027344-8.824219 7.175781-15.972656 16-16h192c8.824219.027344 15.972656 7.175781 16 16zm0 0" fill="#ab2300"/><path d="m270.960938 224.480469c.011718 5.859375-2.21875 11.5-6.242188 15.757812l-91.277344 96.960938c-11.929687 12.671875-31.792968 13.488281-44.722656 1.839843l-35.117188-31.597656c-7.503906-6.675781-10.777343-16.902344-8.546874-26.695312 2.226562-9.789063 9.609374-17.589844 19.257812-20.359375 9.652344-2.769531 20.046875-.066407 27.128906 7.054687l3.597656 3.597656c9.371094 9.359376 24.550782 9.359376 33.921876 0l62.800781-62.800781c6.566406-6.570312 16.445312-8.535156 25.027343-4.980469 8.582032 3.554688 14.175782 11.933594 14.171876 21.222657zm0 0" fill="#ff5023"/><path d="m88 40h176c4.417969 0 8 3.582031 8 8s-3.582031 8-8 8h-176c-4.417969 0-8-3.582031-8-8s3.582031-8 8-8zm0 0" fill="#b43b1c"/></svg>